<svg xmlns="http://www.w3.org/2000/svg" xmlns:xlink="http://www.w3.org/1999/xlink" width="112" height="96" viewBox="0 0 112 96">
    <defs>
        <path id="a" d="M0 26h111v10H0z"/>
        <path id="c" d="M0-59h89v75H0z"/>
    </defs>
    <g fill="none" fill-rule="evenodd" transform="translate(0 59.5)">
        <mask id="b" fill="#fff">
            <use xlink:href="#a"/>
        </mask>
        <path fill="#565656" d="M29.356 36V26h6.308v2.26h-4.04v1.562h3.465v2.246h-3.464v1.671h4.039V36h-6.308zm8.234 0V26h6.308v2.26h-4.04v1.562h3.464v2.246H39.86v1.671h4.039V36H37.59zm-25.877-7.74V26h6.995v2.26h-2.363V36h-2.269v-7.74h-2.363zM5.404 26v7.932h1.85V36H.81v-2.068h2.35v-5.795l-1.67 2.406L0 29.263 2.253 26h3.151zm21.606 5.075c-.251.466-.62.821-1.1 1.06L27.67 36h-2.527l-1.526-3.52h-1.063V36h-2.268V26h4.322c.423 0 .813.08 1.158.235.349.157.65.384.897.675.245.289.436.638.57 1.037.13.397.198.842.198 1.32 0 .685-.141 1.293-.42 1.808zm-1.911-2.11c0-.254-.06-.436-.183-.557-.129-.128-.307-.189-.546-.189h-1.817v2.097h1.817c.239 0 .417-.061.546-.188.123-.121.183-.304.183-.558v-.605zM54.226 26v7.932h1.85V36h-6.445v-2.068h2.351v-5.795l-1.67 2.406-1.49-1.28L51.073 26h3.152zm49.779 0H111v2.26h-2.363V36h-2.269v-7.74h-2.363V26zm-7.609 10V26h6.308v2.26h-4.04v1.562h3.464v2.246h-3.463v1.671h4.039V36h-6.308zm-28.86-9.085c.246.285.437.635.57 1.04.132.4.199.843.199 1.313 0 .48-.067.924-.199 1.32a3.02 3.02 0 0 1-.57 1.032 2.629 2.629 0 0 1-.894.673c-.346.16-.74.243-1.172.243H63.43V36h-2.27V26h4.311c.432 0 .826.082 1.172.243.347.161.648.387.893.672zm-4.107 1.304v2.097h1.816c.239 0 .418-.062.546-.188.123-.121.183-.304.183-.558v-.605c0-.254-.06-.436-.183-.557-.128-.128-.307-.189-.546-.189H63.43zM92.039 26h2.156v10h-2.366l-2.448-4.652-.526-1.207V36h-2.156V26h2.366l2.441 4.637.533 1.222V26zm-22.033 0h2.269v7.74H75.6V36h-5.595V26zm10.951 2.701l-.75 2.84h1.51l-.76-2.84zM79.704 26h2.618l2.958 10h-2.366l-.625-2.282h-2.64L79.024 36h-2.317l2.997-10z" mask="url(#b)"/>
        <mask id="d" fill="#fff">
            <use xlink:href="#c"/>
        </mask>
        <path fill="#E7E7E7" d="M44.5-59l14.833 15H29.667L44.5-59zm0 15l14.833 15H29.667L44.5-44zm0 15l14.833 15H29.667L44.5-29zm29.667 0L89-14H59.333l14.834-15zM44.5-14L59.333 1H29.667L44.5-14zm-29.667 0L29.667 1H0l14.833-15zm59.334 0L89 1H59.333l14.834-15zM44.5 1l14.833 15H29.667L44.5 1zM14.833 1l14.834 15H0L14.833 1zm59.334 0L89 16H59.333L74.167 1z" mask="url(#d)"/>
        <path fill="#6285FF" d="M104 0a8 8 0 1 1 0 16 8 8 0 0 1 0-16"/>
    </g>
</svg>
