<svg xmlns="http://www.w3.org/2000/svg" xmlns:xlink="http://www.w3.org/1999/xlink" width="140" height="19" viewBox="0 0 140 19">
    <defs>
        <path id="a" d="M0 0h140v18H0z"/>
    </defs>
    <g fill="none" fill-rule="evenodd" transform="translate(0 .5)">
        <mask id="b" fill="#fff">
            <use xlink:href="#a"/>
        </mask>
        <path fill="#000" d="M24.122 14.464c.957 0 1.734.792 1.734 1.768 0 .977-.777 1.768-1.734 1.768-.958 0-1.735-.791-1.735-1.768 0-.976.777-1.768 1.735-1.768zM138.739 6.75h.504c.07 0 .126-.058.126-.129V4.307a.127.127 0 0 0-.126-.128h-2.27a.127.127 0 0 0-.126.128v.514c0 1.065.847 1.929 1.892 1.929zm-5.36 4.499h-.504a.127.127 0 0 0-.126.128v2.315c0 .07.056.128.126.128h2.27c.07 0 .127-.057.127-.128v-.515c0-1.065-.848-1.928-1.892-1.928zM82.614 8.746v.447c0 .07-.057.128-.126.128h-2.901a.128.128 0 0 1-.127-.128v-.447c0-3.052-.052-4.282-.459-4.754-.038-.044.002-.115.06-.103 2.008.417 3.526 2.429 3.553 4.857zm-8.83.327v-.327c.028-2.428 1.545-4.44 3.554-4.857.057-.012.098.059.06.103-.407.472-.46 1.702-.46 4.754l.001 1.043c.018 2.486.245 4.019 2.206 4.019.24 0 .439-.008.655-.024a.065.065 0 0 1 .034.124c-.363.143-.74.226-1.32.226-.603 0-1.213-.118-2.048-.49-1.561-.74-2.658-2.509-2.681-4.571zm51.136.657a.13.13 0 0 1 .005-.154l1.884-2.387a.125.125 0 0 1 .196.015l4.346 6.416c.058.085-.002.201-.104.201h-3.408a.25.25 0 0 1-.21-.114l-2.71-3.977zm-1 3.963a.127.127 0 0 1-.126.128h-2.586a.127.127 0 0 1-.126-.128V.45c0-.071.057-.129.126-.129h2.586c.07 0 .126.058.126.129v13.243zm-11.856-9.514h2.586c.07 0 .126.057.126.128v9.386a.127.127 0 0 1-.126.128h-2.586a.127.127 0 0 1-.126-.128V4.307c0-.07.056-.128.126-.128zm5.392-.01c.958 0 1.734.792 1.734 1.769 0 .976-.776 1.768-1.734 1.768s-1.734-.792-1.734-1.768c0-.977.776-1.768 1.734-1.768zM100.27 8.992V8.67c.027-2.39 1.544-4.37 3.552-4.781.057-.012.098.059.059.103-.405.466-.458 1.678-.458 4.678v.321c0 3 .053 4.212.458 4.678.039.044-.002.115-.059.104-2.008-.412-3.525-2.392-3.552-4.782zm9.144 0c-.027 2.39-1.543 4.37-3.552 4.782-.057.011-.097-.06-.058-.104.404-.466.457-1.678.457-4.678V8.67c0-3-.053-4.212-.457-4.678-.039-.044.001-.115.058-.103 2.009.41 3.525 2.39 3.552 4.78v.322zM98.221 0c.957 0 1.734.791 1.734 1.768 0 .976-.777 1.768-1.734 1.768-.958 0-1.734-.792-1.734-1.768C96.487.79 97.263 0 98.22 0zM83.116.321h3.11c.103 0 .196.064.234.16l3.681 9.226a.262.262 0 0 1 0 .194l-1.578 3.95a.125.125 0 0 1-.234 0L83 .498a.128.128 0 0 1 .117-.178zm6.621 0h3.111c.103 0 .195.064.234.16l3.681 9.226a.262.262 0 0 1 0 .194l-1.578 3.95a.125.125 0 0 1-.234 0L89.62.498a.128.128 0 0 1 .116-.178zM71.104 4.18c.957 0 1.734.79 1.734 1.767 0 .977-.777 1.768-1.734 1.768-.958 0-1.735-.791-1.735-1.768 0-.976.777-1.767 1.735-1.767zm-5.392 0h2.585c.07 0 .126.057.126.128v9.386a.127.127 0 0 1-.126.128h-2.585a.127.127 0 0 1-.126-.128V4.307c0-.07.056-.128.126-.128zm-2.334 4.567v.447c0 .07-.056.128-.125.128H60.35a.128.128 0 0 1-.126-.128v-.447c0-3.052-.053-4.282-.46-4.754-.038-.044.003-.115.06-.103 2.009.417 3.54 2.429 3.553 4.857zm-8.828.327v-.327c.027-2.428 1.544-4.44 3.553-4.857.057-.012.098.059.06.103-.407.472-.46 1.702-.46 4.754l.001 1.043c.018 2.486.244 4.019 2.206 4.019.24 0 .439-.008.655-.024a.065.065 0 0 1 .034.124c-.363.143-.741.226-1.32.226-.604 0-1.213-.118-2.048-.49-1.561-.74-2.658-2.509-2.681-4.571zM46.982.45v13.243c0 .07-.056.128-.126.128H44.27a.128.128 0 0 1-.126-.128V.45c0-.071.057-.129.126-.129h2.586c.07 0 .126.058.126.129zm5.358 7.126v6.117c0 .07-.057.128-.126.128h-2.586a.127.127 0 0 1-.126-.128V6.268c0-1.453-.323-2-.886-2.078-.069-.01-.078-.11-.001-.128.093-.022.257-.044.572-.044 2.05 0 3.153 1.335 3.153 3.558zM41.268 9.9l-1.579 3.95a.125.125 0 0 1-.233-.001L35.7 4.355a.128.128 0 0 1 .117-.176h3.11c.103 0 .196.064.234.161l2.106 5.367a.262.262 0 0 1 0 .193zm-5.676 0l-1.578 3.95a.125.125 0 0 1-.234-.001l-3.755-9.494a.128.128 0 0 1 .117-.176h3.11c.104 0 .197.064.235.161l2.106 5.367a.262.262 0 0 1 0 .193zm-6.937 0l-1.578 3.95a.125.125 0 0 1-.234-.001l-3.755-9.494a.128.128 0 0 1 .117-.176h3.11c.104 0 .197.064.235.161l2.106 5.367a.262.262 0 0 1 0 .193zm-7.844-2.324v6.117c0 .07-.057.128-.126.128h-2.586a.127.127 0 0 1-.126-.128V6.268c0-1.453-.323-2-.886-2.078-.07-.01-.078-.11-.001-.128.093-.022.256-.044.572-.044 2.05 0 3.153 1.335 3.153 3.558zm-5.36-3.269v9.386c0 .07-.057.128-.127.128H12.74a.128.128 0 0 1-.126-.128V4.307c0-.07.056-.128.126-.128h2.585c.07 0 .126.057.126.128zm-5.233 9.514H7.107a.252.252 0 0 1-.234-.16L3.192 4.436a.262.262 0 0 1 0-.194L4.77.292a.125.125 0 0 1 .234 0l5.33 13.352a.128.128 0 0 1-.116.177zm-6.75-1.446c0 .976-.776 1.768-1.734 1.768C.777 14.143 0 13.35 0 12.375s.777-1.768 1.734-1.768c.958 0 1.734.792 1.734 1.768zm136.52-.974c-.119 1.346-1.247 2.158-2.777 2.379-.068.01-.1-.08-.042-.118.261-.17.426-.42.466-.867.256-2.92-5.506-2.617-5.19-6.211.104-1.19 1.314-2.12 2.77-2.36.066-.011.102.082.045.118-.361.229-.597.568-.634.992-.235 2.675 5.682 2.415 5.361 6.067z" mask="url(#b)"/>
    </g>
</svg>
