<svg xmlns="http://www.w3.org/2000/svg" xmlns:xlink="http://www.w3.org/1999/xlink" width="136" height="38" viewBox="0 0 136 38">
    <defs>
        <path id="a" d="M0 0h37.96v37.96H0z"/>
    </defs>
    <g fill="none" fill-rule="evenodd">
        <mask id="b" fill="#fff">
            <use xlink:href="#a"/>
        </mask>
        <path fill="#69F" d="M31.393 18.87c-.953-.02-1.895-.11-2.828-.271a1.468 1.468 0 0 1-1.153-.983 19.487 19.487 0 0 0-2.156-4.402 1.467 1.467 0 0 1-.06-1.513c.451-.832.963-1.635 1.534-2.397a1.095 1.095 0 0 1 1.715-.04 18.802 18.802 0 0 1 2.527 3.91 19.336 19.336 0 0 1 1.513 4.372 1.101 1.101 0 0 1-1.092 1.324m-7.4 6.487a20.758 20.758 0 0 1-4.251 2.787 20.182 20.182 0 0 1-4.692 1.614c-1.605.341-3.239-.18-4.292-1.343a17.5 17.5 0 0 1-2.727-4.05 17.662 17.662 0 0 1-1.544-4.804c-.26-1.544.341-3.148 1.594-4.19a19.902 19.902 0 0 1 4.121-2.668 20.458 20.458 0 0 1 4.763-1.634c1.594-.33 3.218.18 4.27 1.334a17.609 17.609 0 0 1 4.312 8.753c.281 1.534-.32 3.138-1.554 4.2M18.98 0C8.492 0 0 8.502 0 18.98s8.502 18.98 18.98 18.98c10.488 0 18.98-8.502 18.98-18.98S29.458 0 18.98 0" mask="url(#b)"/>
        <path fill="#000" fill-rule="nonzero" d="M54.132 25V12.394h-4.84V9.886H61.7v2.508h-4.84V25h-2.728zm11.856-2.112c1.056 0 2.31-.484 2.948-1.144l1.694 1.76c-.99 1.056-2.97 1.76-4.62 1.76-3.256 0-5.94-2.486-5.94-5.984 0-3.41 2.552-5.918 5.786-5.918 3.52 0 5.566 2.662 5.566 6.864h-8.58c.33 1.562 1.518 2.662 3.146 2.662zm-.022-7.15c-1.496 0-2.706.946-3.102 2.442h5.984c-.308-1.43-1.276-2.442-2.882-2.442zM73.172 25V9.622h2.684V25h-2.684zm10.374-2.112c1.056 0 2.31-.484 2.948-1.144l1.694 1.76c-.99 1.056-2.97 1.76-4.62 1.76-3.256 0-5.94-2.486-5.94-5.984 0-3.41 2.552-5.918 5.786-5.918 3.52 0 5.566 2.662 5.566 6.864H80.4c.33 1.562 1.518 2.662 3.146 2.662zm-.022-7.15c-1.496 0-2.706.946-3.102 2.442h5.984c-.308-1.43-1.276-2.442-2.882-2.442zm13.916-2.376c3.014 0 5.214 2.464 5.214 5.94 0 3.498-2.2 5.962-5.214 5.962-1.694 0-3.058-.77-3.96-2.068v5.588h-2.684V13.626h2.684v1.804c.902-1.298 2.266-2.068 3.96-2.068zm-.726 9.614c1.914 0 3.278-1.54 3.278-3.674s-1.364-3.652-3.278-3.652c-1.892 0-3.212 1.518-3.212 3.652 0 2.134 1.32 3.674 3.212 3.674zm13.278 2.288c-3.3 0-6.094-2.728-6.094-5.962 0-3.234 2.794-5.94 6.094-5.94 3.3 0 6.094 2.706 6.094 5.94 0 3.234-2.794 5.962-6.094 5.962zm0-2.288c1.87 0 3.454-1.672 3.454-3.674 0-1.98-1.584-3.652-3.454-3.652-1.892 0-3.476 1.672-3.476 3.652 0 2.002 1.584 3.674 3.476 3.674zm10.594-7.15c.726-1.518 2.2-2.464 4.07-2.464v2.288c-2.442 0-4.07 1.452-4.07 3.608V25h-2.684V13.626h2.684v2.2zm11.144 6.732l.77 1.804a3.865 3.865 0 0 1-2.42.902c-1.892 0-3.212-1.364-3.212-3.278v-6.138h-1.65v-2.222h1.65v-3.124h2.618v3.124h2.574v2.222h-2.574v5.808c0 .77.484 1.32 1.122 1.32.462 0 .88-.176 1.122-.418z"/>
    </g>
</svg>
